<svg width="1440" height="641" viewBox="0 0 1440 641" fill="none" xmlns="http://www.w3.org/2000/svg">
<g clip-path="url(#clip0)">
<rect width="1440" height="641" fill="#1D1D1D"/>
<path d="M690.815 113.95V173.917L561.15 49.183C514.206 4.06031 514.206 -69.1256 561.15 -114.248L690.815 -238.908V-179.015L592.294 -84.2649C562.593 -55.6848 562.593 -9.30664 592.294 19.2735L690.815 113.95Z" stroke="white" stroke-width="2" stroke-miterlimit="10"/>
<path d="M690.511 173.769V113.802L820.176 238.462C867.119 283.584 867.119 356.77 820.176 401.893L690.511 526.553V466.66L789.032 371.91C818.732 343.329 818.732 296.951 789.032 268.371L690.511 173.769Z" stroke="white" stroke-width="2" stroke-miterlimit="10"/>
<path d="M690.891 819.002V878.969L561.15 754.309C514.206 709.186 514.206 636 561.15 590.878L690.815 466.218V526.111L592.37 620.787C562.669 649.367 562.669 695.745 592.37 724.326L690.891 819.002Z" stroke="white" stroke-width="2" stroke-miterlimit="10"/>
<path d="M1164.96 602.326H1195.8L1131.69 665.394C1108.44 688.214 1070.84 688.214 1047.6 665.394L983.49 602.326H1014.33L1063.02 650.181C1077.76 664.656 1101.53 664.656 1116.27 650.181L1164.96 602.326Z" stroke="white" stroke-width="1.47701" stroke-miterlimit="10"/>
<path d="M1195.65 602.325H1164.81L1228.92 539.257C1252.17 516.437 1289.77 516.437 1313.01 539.257L1377.12 602.325H1346.28L1297.59 554.47C1282.86 539.995 1259.08 539.995 1244.34 554.47L1195.65 602.325Z" stroke="white" stroke-width="1.47701" stroke-miterlimit="10"/>
<path d="M1527.75 602.326H1558.59L1494.48 665.394C1471.23 688.214 1433.63 688.214 1410.39 665.394L1346.28 602.326H1377.12L1425.81 650.181C1440.54 664.656 1464.32 664.656 1479.06 650.181L1527.75 602.326Z" stroke="white" stroke-width="1.47701" stroke-miterlimit="10"/>
<path d="M1376.59 38.3292H1345.75L1409.86 -24.7391C1433.1 -47.559 1470.7 -47.559 1493.95 -24.7391L1558.06 38.3292H1527.22L1478.53 -9.52591C1463.79 -24.0006 1440.02 -24.0006 1425.28 -9.52591L1376.59 38.3292Z" stroke="white" stroke-width="1.47701" stroke-miterlimit="10"/>
<path d="M1345.9 38.3292H1376.74L1312.63 101.398C1289.38 124.217 1251.78 124.217 1228.54 101.398L1164.43 38.3292H1195.27L1243.96 86.1844C1258.7 100.659 1282.47 100.659 1297.21 86.1844L1345.9 38.3292Z" stroke="white" stroke-width="1.47701" stroke-miterlimit="10"/>
<path d="M1013.87 38.3292H983.034L1047.14 -24.7391C1070.39 -47.559 1107.99 -47.559 1131.23 -24.7391L1195.34 38.3292H1164.5L1115.81 -9.52591C1101.08 -24.0006 1077.3 -24.0006 1062.56 -9.52591L1013.87 38.3292Z" stroke="white" stroke-width="1.47701" stroke-miterlimit="10"/>
<path d="M980.832 217.121V247.104L915.962 184.774C892.49 162.176 892.49 125.62 915.962 103.022L980.832 40.6918V70.6751L931.533 118.013C916.645 132.34 916.645 155.456 931.533 169.783L980.832 217.121Z" stroke="white" stroke-width="1.47701" stroke-miterlimit="10"/>
<path d="M980.68 247.031V217.048L1045.55 279.377C1069.02 301.976 1069.02 338.532 1045.55 361.13L980.68 423.46V393.477L1029.9 346.138C1044.79 331.811 1044.79 308.696 1029.9 294.369L980.68 247.031Z" stroke="white" stroke-width="1.47701" stroke-miterlimit="10"/>
<path d="M980.832 569.684V599.667L915.962 537.337C892.49 514.739 892.49 478.183 915.962 455.585L980.832 393.255V423.238L931.609 470.577C916.721 484.904 916.721 508.019 931.609 522.346L980.832 569.684Z" stroke="white" stroke-width="1.47701" stroke-miterlimit="10"/>
<path d="M1217.91 461.343H1233.33L1201.27 492.878C1189.65 504.324 1170.89 504.324 1159.27 492.878L1127.21 461.343H1142.63L1167.01 485.271C1174.38 492.508 1186.31 492.508 1193.6 485.271L1217.91 461.343Z" stroke="white" stroke-width="0.738505" stroke-miterlimit="10"/>
<path d="M1233.25 461.343H1217.83L1249.88 429.809C1261.51 418.362 1280.27 418.362 1291.89 429.809L1323.95 461.343H1308.53L1284.14 437.415C1276.77 430.178 1264.85 430.178 1257.56 437.415L1233.25 461.343Z" stroke="white" stroke-width="0.738505" stroke-miterlimit="10"/>
<path d="M1399.22 461.342H1414.64L1382.59 492.876C1370.97 504.323 1352.2 504.323 1340.58 492.876L1308.53 461.342H1323.95L1348.33 485.27C1355.7 492.507 1367.62 492.507 1374.92 485.27L1399.22 461.342Z" stroke="white" stroke-width="0.738505" stroke-miterlimit="10"/>
<path d="M1415.78 371.91V356.919L1448.22 388.083C1459.99 399.383 1459.99 417.624 1448.22 428.923L1415.78 460.088V445.096L1440.4 421.39C1447.84 414.227 1447.84 402.632 1440.4 395.542L1415.78 371.91Z" stroke="white" stroke-width="0.738505" stroke-miterlimit="10"/>
<path d="M1415.86 356.918V371.91L1383.43 340.745C1371.65 329.446 1371.65 311.205 1383.43 299.906L1415.86 268.741V283.732L1391.25 307.438C1383.8 314.602 1383.8 326.196 1391.25 333.286L1415.86 356.918Z" stroke="white" stroke-width="0.738505" stroke-miterlimit="10"/>
<path d="M1415.78 195.629V180.637L1448.22 211.802C1459.99 223.101 1459.99 241.342 1448.22 252.641L1415.78 283.806V268.815L1440.4 245.109C1447.84 237.945 1447.84 226.351 1440.4 219.261L1415.78 195.629Z" stroke="white" stroke-width="0.738505" stroke-miterlimit="10"/>
<path d="M1323.65 179.308H1308.23L1340.28 147.773C1351.9 136.327 1370.67 136.327 1382.29 147.773L1414.34 179.308H1398.92L1374.54 155.38C1367.17 148.143 1355.25 148.143 1347.95 155.38L1323.65 179.308Z" stroke="white" stroke-width="0.738505" stroke-miterlimit="10"/>
<path d="M1308.37 179.309H1323.79L1291.74 210.843C1280.12 222.29 1261.35 222.29 1249.73 210.843L1217.68 179.309H1233.1L1257.48 203.236C1264.85 210.474 1276.77 210.474 1284.07 203.236L1308.37 179.309Z" stroke="white" stroke-width="0.738505" stroke-miterlimit="10"/>
<path d="M1142.33 179.308H1126.91L1158.96 147.773C1170.58 136.327 1189.35 136.327 1200.97 147.773L1233.02 179.308H1217.6L1193.22 155.38C1185.85 148.143 1173.93 148.143 1166.63 155.38L1142.33 179.308Z" stroke="white" stroke-width="0.738505" stroke-miterlimit="10"/>
<path d="M1125.77 268.74V283.731L1093.33 252.566C1081.56 241.267 1081.56 223.026 1093.33 211.727L1125.77 180.562V195.554L1101.16 219.26C1093.71 226.423 1093.71 238.018 1101.16 245.108L1125.77 268.74Z" stroke="white" stroke-width="0.738505" stroke-miterlimit="10"/>
<path d="M1125.69 283.66V268.668L1158.13 299.833C1169.9 311.132 1169.9 329.373 1158.13 340.672L1125.69 371.837V356.846L1150.3 333.139C1157.75 325.976 1157.75 314.381 1150.3 307.292L1125.69 283.66Z" stroke="white" stroke-width="0.738505" stroke-miterlimit="10"/>
<path d="M1125.84 445.022V460.014L1093.41 428.849C1081.63 417.55 1081.63 399.309 1093.41 388.009L1125.84 356.845V371.836L1101.23 395.542C1093.79 402.706 1093.79 414.3 1101.23 421.39L1125.84 445.022Z" stroke="white" stroke-width="0.738505" stroke-miterlimit="10"/>
<path d="M1305.56 272.803H1320.3L1289.61 303.008C1278.52 313.938 1260.52 313.938 1249.43 303.008L1218.74 272.803H1233.48L1256.8 295.697C1263.86 302.639 1275.26 302.639 1282.24 295.697L1305.56 272.803Z" fill="white"/>
<path d="M1233.33 356.771H1218.59L1249.43 326.418C1260.52 315.489 1278.52 315.489 1289.61 326.418L1320.45 356.771H1305.72L1282.25 333.656C1275.18 326.714 1263.79 326.714 1256.8 333.656L1233.33 356.771Z" fill="white"/>
</g>
<defs>
<clipPath id="clip0">
<rect width="1440" height="641" fill="white"/>
</clipPath>
</defs>
</svg>
